<svg width="53" height="52" viewBox="0 0 53 52" fill="none" xmlns="http://www.w3.org/2000/svg">
<circle cx="26.1878" cy="26.1269" r="25.8274" fill="white"/>
<path d="M36.6093 33.0001C36.2187 33.9025 35.7564 34.733 35.2207 35.4967C34.4906 36.5377 33.8927 37.2583 33.432 37.6585C32.7178 38.3153 31.9525 38.6517 31.1331 38.6708C30.5448 38.6708 29.8354 38.5034 29.0096 38.1638C28.1811 37.8259 27.4197 37.6585 26.7234 37.6585C25.9933 37.6585 25.2102 37.8259 24.3726 38.1638C23.5337 38.5034 22.8579 38.6804 22.3412 38.6979C21.5554 38.7314 20.7722 38.3854 19.9904 37.6585C19.4913 37.2232 18.8672 36.4771 18.1195 35.4202C17.3173 34.2914 16.6578 32.9826 16.1411 31.4904C15.5877 29.8786 15.3103 28.3179 15.3103 26.8068C15.3103 25.076 15.6843 23.5831 16.4334 22.3321C17.0222 21.3273 17.8054 20.5346 18.7857 19.9528C19.766 19.3708 20.8252 19.0743 21.9659 19.0554C22.5901 19.0554 23.4085 19.2484 24.4257 19.6278C25.4399 20.0086 26.0912 20.2016 26.3767 20.2016C26.5902 20.2016 27.3136 19.9759 28.5401 19.5258C29.6999 19.1084 30.6787 18.9356 31.4806 19.0037C33.6536 19.1791 35.2861 20.0356 36.3718 21.5789C34.4284 22.7564 33.467 24.4056 33.4862 26.5213C33.5037 28.1693 34.1016 29.5406 35.2765 30.6295C35.809 31.1349 36.4036 31.5255 37.0653 31.8029C36.9218 32.219 36.7703 32.6175 36.6093 33.0001V33.0001ZM31.6257 13.3894C31.6257 14.6811 31.1538 15.8871 30.2132 17.0034C29.0781 18.3304 27.7052 19.0973 26.2163 18.9763C26.1964 18.8139 26.1864 18.6504 26.1863 18.4868C26.1863 17.2468 26.7261 15.9198 27.6848 14.8347C28.1634 14.2854 28.772 13.8286 29.5102 13.4642C30.2467 13.1052 30.9434 12.9067 31.5986 12.8727C31.6178 13.0454 31.6257 13.2181 31.6257 13.3894V13.3894Z" fill="black"/>
</svg>
