<svg width="52" height="52" viewBox="0 0 52 52" fill="none" xmlns="http://www.w3.org/2000/svg">
<circle cx="25.8325" cy="26.1269" r="25.8274" fill="white"/>
<path d="M39.2075 25.7864C39.2075 18.6544 33.4259 12.8727 26.2938 12.8727C19.1618 12.8727 13.3801 18.6544 13.3801 25.7864C13.3801 32.232 18.1025 37.5745 24.2761 38.5432V29.5193H20.9972V25.7864H24.2761V22.9414C24.2761 19.7049 26.204 17.9171 29.1538 17.9171C30.5666 17.9171 32.0445 18.1693 32.0445 18.1693V21.3473H30.4161C28.8119 21.3473 28.3116 22.3428 28.3116 23.364V25.7864H31.8931L31.3206 29.5193H28.3116V38.5432C34.4852 37.5745 39.2075 32.232 39.2075 25.7864Z" fill="#1877F2"/>
<path d="M31.3206 29.5193L31.8931 25.7864H28.3116V23.364C28.3116 22.3428 28.8119 21.3473 30.4161 21.3473H32.0445V18.1693C32.0445 18.1693 30.5666 17.9171 29.1538 17.9171C26.204 17.9171 24.2761 19.7048 24.2761 22.9414V25.7864H20.9972V29.5193H24.2761V38.5432C24.9436 38.6478 25.6182 38.7003 26.2938 38.7001C26.9803 38.7001 27.6541 38.6464 28.3116 38.5432V29.5193H31.3206Z" fill="white"/>
</svg>
