<svg width="52" height="52" viewBox="0 0 52 52" fill="none" xmlns="http://www.w3.org/2000/svg">
<circle cx="26.0102" cy="26.1269" r="25.8274" fill="white"/>
<path d="M38.4557 26.649C38.4568 25.7999 38.385 24.9523 38.2411 24.1154H26.4905V28.9144H33.2207C33.083 29.6808 32.7915 30.4114 32.3638 31.0622C31.9361 31.713 31.3811 32.2704 30.7321 32.7009V35.8159H34.7488C37.1007 33.6475 38.4557 30.4407 38.4557 26.649Z" fill="#4285F4"/>
<path d="M26.4904 38.8255C29.8529 38.8255 32.6841 37.7213 34.7487 35.8177L30.732 32.7027C29.6141 33.4606 28.1742 33.8933 26.4904 33.8933C23.2403 33.8933 20.4818 31.7024 19.4954 28.75H15.3575V31.9602C16.3946 34.0239 17.9849 35.7587 19.9508 36.971C21.9166 38.1833 24.1808 38.8253 26.4904 38.8255Z" fill="#34A853"/>
<path d="M19.4954 28.7511C18.9739 27.2041 18.9739 25.5287 19.4954 23.9817V20.7714H15.3576C14.4851 22.5075 14.0308 24.4235 14.0308 26.3664C14.0308 28.3093 14.4851 30.2253 15.3576 31.9614L19.4954 28.7511Z" fill="#FBBC04"/>
<path d="M26.4906 18.8377C28.2676 18.8086 29.9846 19.48 31.2705 20.7067L34.8268 17.1504C32.5717 15.0323 29.5842 13.8694 26.4906 13.9055C24.181 13.9056 21.9169 14.5477 19.951 15.7599C17.9851 16.9722 16.3949 18.7071 15.3578 20.7707L19.4956 23.981C20.482 21.0286 23.2406 18.8377 26.4906 18.8377Z" fill="#EA4335"/>
</svg>
