<svg width="59" height="86" viewBox="0 0 59 86" fill="none" xmlns="http://www.w3.org/2000/svg">
<mask id="mask0_2013_8" style="mask-type:luminance" maskUnits="userSpaceOnUse" x="0" y="0" width="59" height="86">
<path d="M58.2676 0H0.732422V86H58.2676V0Z" fill="white"/>
</mask>
<g mask="url(#mask0_2013_8)">
<path d="M30.5451 -0.000113992C27.3241 0.000822169 24.2352 1.27886 21.9576 3.55304C19.68 5.82722 18.4 8.91143 18.399 12.1276V17.637H12.8813C11.2851 17.6356 9.70426 17.9486 8.2293 18.558C6.75435 19.1673 5.41421 20.0611 4.28555 21.1881C3.15688 22.3151 2.26186 23.6533 1.65167 25.126C1.0415 26.5988 0.728139 28.1772 0.729534 29.771V41.8945H18.3962V52.9133H12.8784C9.65648 52.9128 6.56627 54.1903 4.28745 56.4646C2.00863 58.7389 0.72781 61.8237 0.726685 65.0408V85.9933H12.8841C14.4788 85.9927 16.0577 85.6784 17.5307 85.0679C19.0037 84.458 20.3419 83.5641 21.4689 82.4376C22.5958 81.3111 23.4895 79.9739 24.0989 78.5022C24.7082 77.0305 25.0213 75.4541 25.0203 73.8618H25.0359V65.8572L25.0034 65.8614V14.8646L25.0302 14.871V12.1297C25.033 10.668 25.6148 9.26676 26.6486 8.23179C27.6823 7.19682 29.0841 6.6122 30.548 6.60548H51.6491V12.1297C51.6446 13.5907 51.0609 14.9905 50.0255 16.023C48.9902 17.0554 47.5876 17.6365 46.1243 17.6391H27.5274V24.2518H46.1214C49.3425 24.252 52.4317 22.9745 54.7095 20.7006C56.9874 18.4266 58.2672 15.3424 58.2676 12.1262V-0.00152588L30.5451 -0.000113992ZM18.399 35.2811H7.35931V29.7717C7.36173 28.3083 7.94417 26.9054 8.97944 25.8694C10.0146 24.8335 11.4185 24.2489 12.8841 24.2433H18.4019L18.399 35.2811ZM18.399 73.8679C18.3966 75.3287 17.8147 76.7295 16.7806 77.7627C15.7465 78.7965 14.3444 79.3792 12.8813 79.3828H7.35646V65.0444C7.35779 63.5824 7.94053 62.181 8.97653 61.1478C10.0126 60.1146 11.4171 59.5345 12.8813 59.5351H18.399V73.8679ZM27.5274 41.8938H41.4632V47.4088C41.4578 48.8696 40.8737 50.2688 39.8386 51.3011C38.8035 52.3333 37.4013 52.9147 35.9384 52.9182H27.5274V59.5351H35.9412C37.5365 59.5359 39.1163 59.2228 40.5903 58.6136C42.0643 58.0045 43.4037 57.1112 44.5317 55.9849C45.6597 54.8585 46.5544 53.5212 47.1645 52.0495C47.7746 50.5777 48.0882 49.0003 48.0873 47.4074H48.093V35.2797H27.5274V41.8938Z" fill="#18988B"/>
</g>
</svg>
